<svg width="50" height="66" viewBox="0 0 50 66" fill="none" xmlns="http://www.w3.org/2000/svg">
<path d="M36.8281 0.240234V0.345703C36.8867 0.345703 36.916 0.310547 36.916 0.240234C39.1777 0.240234 41.0469 1.0957 42.5234 2.80664C43.6016 3.54492 44.9258 5.94141 46.4961 9.99609C47.1875 12.4453 47.6914 14.6895 48.0078 16.7285H47.9199C48.3535 18.873 48.7285 21.082 49.0449 23.3555C48.9863 23.4609 48.957 23.584 48.957 23.7246C48.957 24.2402 49.0215 24.6445 49.1504 24.9375C49.0801 25.2656 49.0449 25.5117 49.0449 25.6758C49.0449 26.4141 49.1094 27.1172 49.2383 27.7852L49.1504 27.9609L49.3262 28.6113L49.2383 29.1738V29.3496C49.2383 29.5488 49.2676 29.7012 49.3262 29.8066L49.1504 31.002C49.1504 31.0723 49.1797 31.166 49.2383 31.2832C49.1797 31.6113 49.1504 31.8926 49.1504 32.127C49.1504 32.2676 49.1797 32.3848 49.2383 32.4785C49.1094 33.334 48.9863 34.5293 48.8691 36.0645C48.8691 36.1348 48.8984 36.1699 48.957 36.1699C48.8984 36.9082 48.834 37.2773 48.7637 37.2773C48.7637 37.3477 48.7988 37.3828 48.8691 37.3828L48.6758 38.2793L48.7637 38.4727C48.3887 41.3203 47.8848 43.4121 47.252 44.748C46.8418 45.6738 46.4668 46.5938 46.127 47.5078C44.3574 51.2695 43.2266 53.4199 42.7344 53.959C42.1953 54.8027 41.1875 56.0977 39.7109 57.8438C38.75 59.2266 37.4902 60.4219 35.9316 61.4297C33.7637 62.7891 31.4961 63.7734 29.1289 64.3828C28.2734 64.6992 27.3945 64.8809 26.4922 64.9277V64.8574L26.2988 64.9277H25.4551L24.5059 65.0332V64.9277C24.1777 65.0566 23.9258 65.1211 23.75 65.1211C23.75 65.0625 23.7207 65.0332 23.6621 65.0332C23.6621 65.1621 23.5977 65.2266 23.4688 65.2266H22.8008C22.5664 65.2266 21.9395 65.127 20.9199 64.9277L20.7266 65.0332C20.6094 64.9629 20.5156 64.9277 20.4453 64.9277C20.3867 64.9277 20.3574 64.9629 20.3574 65.0332L19.0215 64.8574C18.9043 64.9043 18.8105 64.9277 18.7402 64.9277L17.334 64.4883C17.2637 64.4883 17.2285 64.5176 17.2285 64.5762C14.5566 64.2598 12.5762 63.8613 11.2871 63.3809C10.0098 62.959 9.06641 62.4961 8.45703 61.9922C8.24609 61.9922 7.64844 61.6582 6.66406 60.9902C6.24219 60.498 5.92578 60.252 5.71484 60.252C5.71484 60.1582 5.43359 59.8477 4.87109 59.3203C4.00391 58.1016 3.37109 57.334 2.97266 57.0176C2.59766 56.0332 2.12891 55.0137 1.56641 53.959C1.42578 53.959 1.33203 53.7773 1.28516 53.4141C0.945312 53.4141 0.599609 52.4004 0.248047 50.373L0.0546875 48.6152C0.207031 47.6309 0.330078 47.1387 0.423828 47.1387C0.423828 47.0918 0.394531 47.0684 0.335938 47.0684C0.335938 46.7754 0.558594 46.0898 1.00391 45.0117C1.50781 44.3789 1.75977 44.0449 1.75977 44.0098C2.32227 43.7051 2.82617 43.3359 3.27148 42.9023C3.89258 42.6211 4.99414 42.375 6.57617 42.1641V42.252L6.75195 42.1641H7.50781C8.31641 42.1641 9.20117 42.3809 10.1621 42.8145C11.2637 43.0605 12.6465 43.459 14.3105 44.0098C14.3691 44.0098 14.3984 43.9805 14.3984 43.9219C15.1602 43.9805 15.7578 44.0977 16.1914 44.2734L16.3848 44.1855C16.6426 44.373 17.2109 44.5312 18.0898 44.6602L18.6523 44.5723V44.6602C19.1094 44.4727 19.4258 44.3789 19.6016 44.3789V44.2734C18.4648 44.0742 17.8965 43.9277 17.8965 43.834L17.7031 43.9219C15.8281 43.4883 14.791 43.2715 14.5918 43.2715C14.5918 43.0723 14.0234 42.8848 12.8867 42.709C11.9961 42.3223 11.2109 41.9238 10.5312 41.5137L8.73828 40.4941C8.30469 40.4941 7.23242 39.4863 5.52148 37.4707L3.92188 35.8008C2.96094 34.6758 2.39844 33.6621 2.23438 32.7598C2.02344 32.7598 1.73633 31.8691 1.37305 30.0879C1.37305 29.9238 1.30859 29.7363 1.17969 29.5254L1.28516 29.3496C1.16797 29.1973 0.980469 27.75 0.722656 25.0078C0.652344 25.0078 0.617188 24.9844 0.617188 24.9375L0.722656 24.4629C0.722656 24.3926 0.6875 24.3047 0.617188 24.1992C0.875 22.5352 1.0332 21.7031 1.0918 21.7031C1.0332 21.5742 1.00391 21.4805 1.00391 21.4219C2.10547 17.2266 3.20703 14.3672 4.30859 12.8438C4.54297 12.4336 5.51562 11.2969 7.22656 9.43359C7.37891 9.14063 7.63086 8.95312 7.98242 8.87109C7.98242 8.74219 8.67383 8.09766 10.0566 6.9375C10.2441 6.9375 10.748 6.56836 11.5684 5.83008C13.0332 5.08008 13.8184 4.65234 13.9238 4.54688L15.4355 3.89648C15.4355 3.9668 15.4707 4.00195 15.541 4.00195C16.3848 3.38086 17.0762 3.07031 17.6152 3.07031C17.6152 3 17.6445 2.96484 17.7031 2.96484L17.8965 3.07031C19.1387 2.57812 19.8008 2.33203 19.8828 2.33203L20.0762 2.41992C20.1816 2.36133 20.3047 2.33203 20.4453 2.33203V2.41992L20.6387 2.33203H20.832C20.8906 2.33203 20.9199 2.36133 20.9199 2.41992C21.166 2.36133 21.3828 2.26758 21.5703 2.13867H21.6758C21.7344 2.13867 21.7637 2.16797 21.7637 2.22656L21.957 2.13867H22.0449C22.1152 2.13867 22.1504 2.16797 22.1504 2.22656L22.3262 2.13867H23.1875L23.75 2.22656L24.3125 2.06836L24.5059 2.13867C24.8809 2.10352 25.0684 2.04492 25.0684 1.96289L27.8984 2.22656V2.13867H28.0918L28.7598 2.41992C28.877 2.36133 28.9707 2.33203 29.041 2.33203L29.2344 2.41992L29.4102 2.33203C29.7617 2.39063 30.2363 2.53125 30.834 2.75391C32.2871 1.32422 34.2852 0.486328 36.8281 0.240234ZM30.834 7.02539C30.5527 7.02539 30.3301 6.58594 30.166 5.70703C29.6973 5.14453 29.0352 4.86328 28.1797 4.86328L28.0918 4.6875C28.0332 4.6875 28.0039 4.7168 28.0039 4.77539C27.7578 4.7168 27.0957 4.65234 26.0176 4.58203C26.5801 5.44922 26.8613 6.44531 26.8613 7.57031H26.7734C26.832 7.6875 26.8613 7.78125 26.8613 7.85156C26.8613 9.04688 26.5156 9.82617 25.8242 10.1895C23.8203 11.9473 22.4668 12.8262 21.7637 12.8262H21.4824C20.3574 12.8262 19.3496 12.4863 18.459 11.8066C17.0762 10.6699 16.3848 9.32227 16.3848 7.76367V6.26953C16.5723 5.98828 16.666 5.76563 16.666 5.60156L16.4727 5.51367C16.4727 5.60742 16.0977 5.76563 15.3477 5.98828C15.3008 6.15234 14.7969 6.4043 13.8359 6.74414C12.3242 7.64648 11.2578 8.33203 10.6367 8.80078C10.1328 9.1875 9.88086 9.46875 9.88086 9.64453H9.77539C9.96289 10.1484 10.0566 10.6172 10.0566 11.0508V11.1387C10.0566 12.9199 9.49414 14.3906 8.36914 15.5508C7.17383 16.1016 5.87891 16.4414 4.48438 16.5703C4.10938 17.6484 3.73438 19.084 3.35938 20.877H3.64062L3.44727 21.1582V21.2461L3.64062 21.1582H4.11523C4.58398 21.1582 4.92969 21.1875 5.15234 21.2461C5.5625 21.1875 5.97266 21.1582 6.38281 21.1582H6.75195C7.9707 21.1582 9.32422 21.9082 10.8125 23.4082C11.5742 24.5566 11.9551 26.1797 11.9551 28.2773C11.9551 29.1445 11.5156 30.4219 10.6367 32.1094C10.2852 32.8242 9.40039 33.9551 7.98242 35.502C9.31836 37.1895 10.3906 38.0332 11.1992 38.0332C11.1992 38.1738 12.0137 38.666 13.6426 39.5098C13.6426 39.627 14.0527 39.8203 14.873 40.0898L15.0664 39.9844H15.3477C15.3477 40.2773 16.291 40.5879 18.1777 40.916L21.5703 41.6719C22.0508 41.8008 22.4961 41.8652 22.9062 41.8652H23.5566V41.6719C23.6504 41.6719 23.9375 41.7363 24.418 41.8652C24.4297 41.7363 24.4883 41.6719 24.5938 41.6719L24.7871 41.7598C24.7871 40.5996 25.1035 39.5977 25.7363 38.7539L26.4922 37.5586C27.7578 35.9883 28.9824 35.2031 30.166 35.2031C30.166 35.1445 30.2949 35.1152 30.5527 35.1152H31.959C32.7324 35.209 33.6172 35.707 34.6133 36.6094C35.5508 38.0859 36.0195 39.3047 36.0195 40.2656C36.3359 40.8281 36.4941 41.3906 36.4941 41.9531C36.4941 42.0117 36.4648 42.041 36.4062 42.041L36.4941 42.2344V43.0781C36.0488 44.9531 35.6387 45.8906 35.2637 45.8906C34.4199 47.0742 32.7852 47.666 30.3594 47.666C30.3594 47.7832 30.2012 47.8418 29.8848 47.8418H29.7969C27.4531 47.291 26.0059 46.6055 25.4551 45.7852C24.6699 46.1602 24.0371 46.3828 23.5566 46.4531C22.5254 47.0742 21.5176 47.3848 20.5332 47.3848L19.4082 47.666C19.3496 47.666 19.3203 47.6309 19.3203 47.5605C18.582 47.6895 18.043 47.7539 17.7031 47.7539V47.666C17.5039 47.7832 17.3457 47.8418 17.2285 47.8418C17.1113 47.7832 17.0176 47.7539 16.9473 47.7539C16.8066 49.043 16.6484 49.8867 16.4727 50.2852C15.5586 51.5273 14.6797 52.1484 13.8359 52.1484H13.1855C12.2363 52.1484 11.3223 51.75 10.4434 50.9531C9.36523 49.9219 8.82617 48.9199 8.82617 47.9473C9.02539 47.2207 9.24805 46.6875 9.49414 46.3477V46.1719C8.18164 45.8555 7.42578 45.6973 7.22656 45.6973C7.15625 45.6973 7.0625 45.7266 6.94531 45.7852L6.4707 45.6973C5.3457 45.7441 4.7832 45.8086 4.7832 45.8906C3.95117 46.5 3.41211 47.1855 3.16602 47.9473C3.16602 48.6973 3.10156 49.0723 2.97266 49.0723L3.07812 49.2656V49.916C3.21875 49.916 3.40625 50.3848 3.64062 51.3223L4.87109 54.1172C5.60938 55.3125 6.04883 55.9395 6.18945 55.998H6.27734L6.18945 55.0664C6.18945 53.918 6.69336 53.1035 7.70117 52.623C8.7793 52.623 9.53516 53.3438 9.96875 54.7852V55.4355C9.96875 55.9277 9.43555 56.4609 8.36914 57.0352H7.78906C7.4375 57.0352 7.0918 56.9062 6.75195 56.6484V56.9297C6.83398 56.9297 7.37305 57.4629 8.36914 58.5293C9.0957 59.1973 9.6582 59.5723 10.0566 59.6543C10.4785 59.9473 10.8887 60.1934 11.2871 60.3926V60.4805C11.4043 60.4336 11.7852 59.6543 12.4297 58.1426L13.3613 56.6484C14.5449 55.0664 15.7754 54.041 17.0527 53.5723C17.5684 53.4434 17.8496 53.3789 17.8965 53.3789C20.8613 53.3789 22.6895 53.7539 23.3809 54.5039C25.1387 56.0977 26.0176 58.377 26.0176 61.3418C25.959 61.6465 25.9297 62.0508 25.9297 62.5547H26.0176C26.1582 62.5547 26.2812 62.5254 26.3867 62.4668C26.457 62.4668 26.4922 62.4961 26.4922 62.5547C27.8867 62.4141 29.0176 62.168 29.8848 61.8164H29.9727C30.043 61.8164 30.0781 61.8457 30.0781 61.9043C30.125 61.9043 30.4414 61.7168 31.0273 61.3418L31.2031 61.4297L33.9453 60.2168C34.0977 60.0293 34.5723 59.748 35.3691 59.373C37.209 58.084 38.498 56.7715 39.2363 55.4355C40.8066 53.6191 42.2832 51.2168 43.666 48.2285C43.666 48.0527 44.1055 46.8984 44.9844 44.7656C45.1836 44.332 45.2832 43.7695 45.2832 43.0781C44.3691 42.6094 43.707 41.6426 43.2969 40.1777C43.2266 40.0723 43.1914 39.9141 43.1914 39.7031C43.1914 37.9102 43.7305 36.6328 44.8086 35.8711C45.2773 35.1797 45.9043 34.834 46.6895 34.834V34.7461C46.5605 34.582 46.4961 34.4824 46.4961 34.4473C46.6484 34.1426 46.7422 33.9902 46.7773 33.9902C46.7188 33.873 46.6895 33.7793 46.6895 33.709L46.7773 33.1465C46.7773 33.0879 46.748 32.9941 46.6895 32.8652L46.7773 32.0215C46.7773 30.0293 46.625 28.3125 46.3203 26.8711H46.4082C46.2324 26.8711 45.9805 24.9316 45.6523 21.0527C45.207 19.1309 44.8906 17.5488 44.7031 16.3066C44.3281 14.6426 43.8594 13.1426 43.2969 11.8066C42.043 12.8027 40.8125 13.3008 39.6055 13.3008C39.6055 13.3594 39.5117 13.3887 39.3242 13.3887L39.1309 13.3008L38.9551 13.3887C38.498 13.3887 37.707 12.7324 36.582 11.4199C36.4883 11.4082 36.2363 10.7871 35.8262 9.55664C35.6387 8.86523 35.5449 8.33203 35.5449 7.95703V6.55078C35.627 5.97656 36.1016 5.19727 36.9688 4.21289C37.6016 3.83789 38.1055 3.61523 38.4805 3.54492C38.4805 3.24023 37.9121 2.92969 36.7754 2.61328C34.5723 3.31641 33.4707 3.9082 33.4707 4.38867C33.3301 4.38867 32.7969 5.04492 31.8711 6.35742C31.3906 6.54492 31.0449 6.76758 30.834 7.02539ZM21.8691 4.58203L21.6758 4.49414C19.7891 5.4668 18.8457 6.15234 18.8457 6.55078C18.834 6.66797 18.3594 6.94922 17.4219 7.39453C17.4219 7.54687 17.3574 7.69922 17.2285 7.85156V8.04492C17.2285 8.17383 17.3281 8.23828 17.5273 8.23828C17.9492 8.01563 18.5117 7.61133 19.2148 7.02539C19.332 7.02539 20.1172 6.46289 21.5703 5.33789C22.2734 5.10352 22.625 4.82227 22.625 4.49414L22.4316 4.38867C22.2559 4.38867 22.0684 4.45312 21.8691 4.58203ZM17.6152 8.99414V9.08203C17.6504 9.45703 17.7441 9.64453 17.8965 9.64453C19.0332 8.82422 20.1992 8.10937 21.3945 7.5C21.4062 7.41797 22.2852 6.84961 24.0312 5.79492L25.1738 4.96875C25.1504 4.82812 24.8633 4.63477 24.3125 4.38867C22.3555 5.6543 20.5332 6.9375 18.8457 8.23828L17.6152 8.99414ZM36.4941 6.74414H36.6875C37.3086 6.55664 38.1875 5.92969 39.3242 4.86328V4.6875L38.4805 4.58203C37.8711 4.58203 37.209 5.26758 36.4941 6.63867V6.74414ZM17.4219 6.35742V6.46289C17.5859 6.43945 17.7441 6.28125 17.8965 5.98828C19.1504 5.22656 19.7773 4.79297 19.7773 4.6875H19.6895C19.5723 4.74609 19.4785 4.77539 19.4082 4.77539L19.2148 4.6875C18.7578 4.80469 18.3828 4.95703 18.0898 5.14453C17.6914 5.49609 17.4688 5.90039 17.4219 6.35742ZM36.4941 7.85156V8.32617L36.582 8.51953C38.3281 7.40625 39.4941 6.5918 40.0801 6.07617L40.2734 5.79492C40.2734 5.66602 40.209 5.60156 40.0801 5.60156C39.7871 5.60156 39.002 6.10547 37.7246 7.11328C37.0098 7.60547 36.5996 7.85156 36.4941 7.85156ZM18.2832 10.3828C18.623 10.6992 18.8398 10.8574 18.9336 10.8574C21.6406 9.22852 23.6562 7.82227 24.9805 6.63867C25.0625 6.52148 25.3789 6.36914 25.9297 6.18164V6.07617C25.8242 5.83008 25.7246 5.70703 25.6309 5.70703C25.3262 5.76563 23.7266 6.73242 20.832 8.60742C20.0352 8.98242 19.1855 9.57422 18.2832 10.3828ZM36.8809 9.45117V9.82031C36.998 10.0664 37.0918 10.1895 37.1621 10.1895L41.0293 7.39453C40.9473 6.96094 40.8535 6.74414 40.748 6.74414C39.3066 7.5293 38.0176 8.43164 36.8809 9.45117ZM19.6895 11.4199L20.3574 11.8945H20.4453C21.7578 11.1562 23.2051 10.1543 24.7871 8.88867C25.5371 8.36133 25.9766 7.95117 26.1055 7.6582V7.02539C25.6602 7.02539 25.127 7.39453 24.5059 8.13281C21.4824 10.0547 19.877 11.1504 19.6895 11.4199ZM37.6191 11.1387L38.0059 11.4199C38.1348 10.9629 39.0137 10.3066 40.6426 9.45117C41.4043 8.87695 41.7852 8.4375 41.7852 8.13281H41.3984C39.4766 9.32812 38.375 10.1133 38.0938 10.4883C37.7773 10.7344 37.6191 10.9512 37.6191 11.1387ZM21.7637 11.9648H21.8691C22.3027 11.9648 23.5273 11.1621 25.543 9.55664C25.543 9.39258 25.6719 9.29883 25.9297 9.27539V9.08203H25.8242C23.1406 10.9453 21.7871 11.9062 21.7637 11.9648ZM42.0664 9.27539C41.5977 9.69727 40.5254 10.4121 38.8496 11.4199C38.8496 11.584 38.7559 11.8008 38.5684 12.0703L38.8496 12.2637C39.2246 12.2637 40.4199 11.4492 42.4355 9.82031C42.3066 9.45703 42.1836 9.27539 42.0664 9.27539ZM5.43359 14.3203H5.52148C5.65039 14.3203 6.0957 13.8867 6.85742 13.0195C8.13477 12.1641 8.89062 11.5723 9.125 11.2441V10.9453C9.125 10.7812 9.06055 10.5938 8.93164 10.3828C8.63867 10.3828 8.10547 10.9102 7.33203 11.9648C7.05078 11.9648 6.73438 12.3164 6.38281 13.0195C6.11328 13.1953 5.79688 13.6289 5.43359 14.3203ZM40.748 12.0703V12.1582C42.002 11.7598 42.6289 11.3262 42.6289 10.8574H42.4355C41.7676 11.2676 41.2051 11.6719 40.748 12.0703ZM4.95898 15.6387V15.7266H5.24023C7.38477 15.2812 8.45703 14.6895 8.45703 13.9512C8.64453 13.9512 8.80273 13.541 8.93164 12.7207V12.6328C8.4043 12.6914 7.77148 13.1309 7.0332 13.9512C6.20117 14.666 5.69727 15.1641 5.52148 15.4453L4.95898 15.6387ZM29.9727 12.7207C31.25 12.9785 31.9121 13.1074 31.959 13.1074C34.1621 14.8887 35.2637 16.043 35.2637 16.5703C35.4512 16.5703 35.7031 17.4727 36.0195 19.2773V20.7715C36.0195 22.2715 35.2344 23.6543 33.6641 24.9199C32.1758 25.6582 30.9805 26.0273 30.0781 26.0273V25.9395L29.8848 26.0273H29.2344C29.3516 26.3672 29.4746 27.0527 29.6035 28.084C29.3223 29.7129 29.041 30.5273 28.7598 30.5273C27.5645 31.6875 26.3047 32.3086 24.9805 32.3906C24.7695 32.3906 24.6113 32.4258 24.5059 32.4961C24.2598 32.4375 24.1367 32.373 24.1367 32.3027L23.9434 32.3906H23.5566C23.334 32.2031 22.959 32.1094 22.4316 32.1094H21.957V31.916H21.8691C21.0254 31.916 20.3633 31.5176 19.8828 30.7207C19.4141 30.3926 19.0039 29.5137 18.6523 28.084V27.9961L18.7402 27.4336C18.6816 27.3281 18.6523 27.2051 18.6523 27.0645L18.8457 26.5898L18.7402 26.4141C19.0332 25.2891 19.3496 24.5977 19.6895 24.3398C20.4863 23.5547 21.2422 23.0566 21.957 22.8457V22.7578L22.3262 22.8457C22.9004 22.6582 23.5977 22.5059 24.418 22.3887C24.1016 20.5605 23.9434 19.5234 23.9434 19.2773C24.1895 17.4492 24.5996 16.1426 25.1738 15.3574C26.4395 13.8574 27.5059 13.1074 28.373 13.1074C28.8535 12.9199 29.3867 12.791 29.9727 12.7207ZM25.6309 16.7461C26.8848 15.9492 28.2734 15.1406 29.7969 14.3203C29.9258 14.0742 30.084 13.9512 30.2715 13.9512V13.7754C30.2012 13.7754 30.1016 13.7402 29.9727 13.6699C29.1172 13.6699 28.1738 13.9805 27.1426 14.6016C26.1348 15.5039 25.6309 16.2188 25.6309 16.7461ZM24.875 18.9961L30.0781 15.9199C30.9219 15.334 31.584 14.8301 32.0645 14.4082C32.0645 14.2793 32 14.2148 31.8711 14.2148H31.6777C31.209 14.2148 30.4238 14.5957 29.3223 15.3574C28.502 15.7324 27.2422 16.4824 25.543 17.6074C25.0977 18.0059 24.875 18.4688 24.875 18.9961ZM24.9805 20.4199L25.0684 20.877C26.1699 20.1621 27.5586 19.3828 29.2344 18.5391L33.2773 16.0078L33.5762 15.6387L32.8203 15.0762L28.6543 17.6074C26.2051 18.8496 24.9805 19.7227 24.9805 20.2266V20.4199ZM16.7715 16.0078H17.2285C17.2988 16.0078 17.334 16.043 17.334 16.1133L17.5273 16.0078C18.2773 16.3828 18.7168 16.5703 18.8457 16.5703C19.3496 16.9805 19.6016 17.4492 19.6016 17.9766L19.4961 18.1699L19.6016 18.3633C19.6016 19.4648 18.6582 20.3965 16.7715 21.1582H16.3848C15.623 21.1582 15.0254 20.3789 14.5918 18.8203C15.1895 17.0742 15.8516 16.2012 16.5781 16.2012C16.6016 16.0723 16.666 16.0078 16.7715 16.0078ZM25.2617 21.7207V21.9141L25.4551 22.5645H25.543C25.9648 22.5645 26.9727 22.0312 28.5664 20.9648C31.1445 19.6758 33.1602 18.4277 34.6133 17.2207V17.0273L34.2266 16.377C32.2695 17.6309 29.8789 18.9785 27.0547 20.4199C25.9297 21.123 25.332 21.5566 25.2617 21.7207ZM15.8223 18.082V18.2578H15.9102C16.9648 17.5664 17.5332 17.2207 17.6152 17.2207V17.1328C17.1465 17.0039 16.8652 16.9395 16.7715 16.9395C16.5957 16.9395 16.2793 17.3203 15.8223 18.082ZM42.2598 17.0273C42.3184 17.0273 42.3477 17.0625 42.3477 17.1328C42.4062 17.1328 42.4355 17.0977 42.4355 17.0273C43.3496 17.0273 43.8887 17.4727 44.0527 18.3633V18.4512C44.0527 19.2832 43.5488 19.8105 42.541 20.0332C41.4629 20.0332 40.9238 19.5938 40.9238 18.7148V18.2578C40.9238 17.707 41.3691 17.2969 42.2598 17.0273ZM15.7344 18.9961V19.1016C15.7344 19.4883 15.8867 19.7402 16.1914 19.8574C16.25 19.7168 16.6953 19.4297 17.5273 18.9961C17.8086 18.6914 18.2773 18.3516 18.9336 17.9766C18.8047 17.7773 18.7402 17.6191 18.7402 17.502H18.5645C17.0527 18.498 16.1094 18.9961 15.7344 18.9961ZM26.6855 22.8457C26.7793 23.0918 26.9961 23.2148 27.3359 23.2148H27.6172C29.0469 22.5234 31.3438 21.1816 34.5078 19.1895C34.5898 19.1309 34.8125 19.1016 35.1758 19.1016C35.0469 18.8086 34.9824 18.5273 34.9824 18.2578C34.7598 18.2578 33.8457 18.791 32.2402 19.8574C31.2324 20.3613 29.4102 21.3574 26.7734 22.8457H26.6855ZM17.0527 20.0332V20.1387H17.2285C17.8379 19.7637 18.1895 19.5762 18.2832 19.5762V19.3828C17.5449 19.8164 17.1348 20.0332 17.0527 20.0332ZM28.0039 23.7773C28.4375 24.3047 28.6543 24.6504 28.6543 24.8145H28.9355L32.8203 22.5645C33.8281 21.873 34.5781 21.4043 35.0703 21.1582L35.1758 20.5078V19.9453C35.0234 19.9453 33.418 20.8184 30.3594 22.5645C29.8555 22.7285 29.0703 23.1328 28.0039 23.7773ZM4.20312 20.7012C4.20312 20.8184 4.14453 20.877 4.02734 20.877H3.64062V20.7715C3.96875 20.7246 4.15625 20.7012 4.20312 20.7012ZM3.16602 22.3887C3.23633 22.752 3.30078 22.9336 3.35938 22.9336C4.17969 22.5234 4.58984 22.2773 4.58984 22.1953V22.1074H4.11523C3.81055 22.1074 3.49414 22.2012 3.16602 22.3887ZM3.16602 23.8828L3.27148 24.3398V24.7266H3.35938C4.77734 23.9297 6.10156 23.1504 7.33203 22.3887C7.33203 22.2598 7.26758 22.1953 7.13867 22.1953H6.66406C6.19531 22.3125 5.09375 22.8105 3.35938 23.6895L3.16602 23.8828ZM29.8848 25.0078V25.1836C31.1973 25.1836 32.5508 24.6211 33.9453 23.4961L34.6133 22.4766H34.5078C32.6562 23.5898 31.1152 24.4336 29.8848 25.0078ZM3.35938 25.7461L3.44727 26.3086V26.5898C5.05273 25.9336 6.94531 24.8379 9.125 23.3027C8.90234 22.9395 8.61523 22.7578 8.26367 22.7578C7.53711 23.2383 6.08984 24.0469 3.92188 25.1836C3.54688 25.4531 3.35938 25.6406 3.35938 25.7461ZM3.64062 27.5215V27.7148L3.83398 28.5586C5.55664 27.7266 6.91016 26.9473 7.89453 26.2207C8.66797 25.6348 9.48242 25.1074 10.3379 24.6387C10.2676 24.4277 10.1152 24.2051 9.88086 23.9707C9.6582 23.9707 8.90234 24.4336 7.61328 25.3594C5.65625 26.4375 4.36133 27.0996 3.72852 27.3457L3.64062 27.5215ZM21.3945 26.1152V26.9766C21.3945 27.5625 21.7402 28.1191 22.4316 28.6465C22.666 29.0449 23.3574 29.332 24.5059 29.5078C24.8691 29.5078 25.2441 29.5664 25.6309 29.6836C26.4512 29.3438 26.8613 29.0332 26.8613 28.752C26.8613 28.5645 26.832 28.4707 26.7734 28.4707L26.8613 27.9961V27.8906C26.8613 27.1992 26.3574 26.5137 25.3496 25.834L24.2246 25.3594C23.8613 25.3594 23.5449 25.3008 23.2754 25.1836C23.0527 25.2422 22.9297 25.2715 22.9062 25.2715C22.7773 25.2129 22.6836 25.1836 22.625 25.1836C22.2031 25.3008 21.793 25.6113 21.3945 26.1152ZM4.02734 29.4023L4.39648 30.5273C4.70117 30.5273 6.83984 29.2148 10.8125 26.5898V26.0273L10.7246 25.5527C10.373 25.5527 9.27148 26.209 7.41992 27.5215C5.42773 28.4824 4.29688 29.1094 4.02734 29.4023ZM39.5176 27.4336C40.0215 27.4336 40.6836 27.8379 41.5039 28.6465C41.8789 29.4434 42.0664 30.0059 42.0664 30.334C42.0664 30.7793 41.3398 31.3711 39.8867 32.1094C39.4297 32.1094 39.0254 32.1738 38.6738 32.3027C37.2793 32.0215 36.582 31.459 36.582 30.6152C37.0742 28.7988 37.707 27.8906 38.4805 27.8906C38.4805 27.8086 38.8262 27.6562 39.5176 27.4336ZM4.7832 31.2832C4.90039 31.541 4.95898 31.7227 4.95898 31.8281H5.06445C5.35742 31.8281 6.89844 30.9902 9.6875 29.3145C10.5078 28.7988 10.9473 28.4531 11.0059 28.2773V27.6094H10.918C8 29.2031 5.95508 30.4277 4.7832 31.2832ZM37.8125 29.6836H37.918C39.0664 28.9922 39.6641 28.5879 39.7109 28.4707H39.043C38.5039 28.7285 38.0938 29.0977 37.8125 29.5781V29.6836ZM37.6191 30.6152V30.8086C37.6426 30.9375 37.707 31.002 37.8125 31.002L40.748 29.3145V29.1211C40.6191 29.1211 40.5547 29.0918 40.5547 29.0332L37.6191 30.6152ZM5.43359 32.584C5.43359 32.666 5.62109 32.918 5.99609 33.3398C7.51953 32.5547 8.84375 31.7754 9.96875 31.002C10.2969 31.002 10.5195 30.6562 10.6367 29.9648V29.7715H10.5312C9.27734 30.5215 7.80078 31.3008 6.10156 32.1094C6.10156 32.2148 5.87891 32.373 5.43359 32.584ZM38.6738 31.1777C38.6855 31.3066 38.7441 31.3711 38.8496 31.3711H39.043C39.4648 31.3711 40.0625 31.1191 40.8359 30.6152L41.1172 30.2461V30.1406L38.6738 31.1777ZM6.66406 33.9902V34.0781C6.98047 34.3711 7.13867 34.5938 7.13867 34.7461H7.41992C8.5332 33.8086 9.13086 33.0879 9.21289 32.584C7.56055 33.4277 6.71094 33.8965 6.66406 33.9902ZM17.8086 32.8652C18.5703 32.8652 19.0391 33.1816 19.2148 33.8145C19.6133 33.8145 19.959 34.8105 20.252 36.8027C19.8418 37.916 19.2793 38.4727 18.5645 38.4727C18.5645 38.6016 18.0254 38.7305 16.9473 38.8594C15.834 38.8594 15.0488 38.2676 14.5918 37.084C14.4629 36.8496 14.3984 36.5977 14.3984 36.3281V36.2227C14.3984 34.3594 15.5352 33.2402 17.8086 32.8652ZM15.4355 35.502H15.7344C16.6719 35.0684 17.3926 34.623 17.8965 34.166L17.0527 33.9902H16.9473C16.4199 33.9902 15.916 34.459 15.4355 35.3965V35.502ZM17.0527 35.8711C16.9824 35.8711 16.9473 35.8418 16.9473 35.7832C16.1035 36.0527 15.5703 36.2988 15.3477 36.5215C15.4297 36.9902 15.5586 37.2422 15.7344 37.2773C16.5547 37.0664 17.6211 36.3457 18.9336 35.1152C18.9922 34.998 19.0215 34.9043 19.0215 34.834L18.8457 34.7461C18.1074 35.1914 17.5098 35.502 17.0527 35.6777V35.8711ZM44.4219 37.9277H44.7031C45.8281 37.3184 46.3965 36.9082 46.4082 36.6973C46.4082 36.6504 46.4375 36.4043 46.4961 35.959C46.3789 35.9004 46.2852 35.8711 46.2148 35.8711C45.3008 36.4688 44.7031 37.1543 44.4219 37.9277ZM16.4727 37.7344V37.9277C16.6836 37.9277 16.8418 37.9629 16.9473 38.0332C18.4004 38.0332 19.25 37.5879 19.4961 36.6973V36.416L19.4082 35.959C18.4824 36.6387 17.5039 37.2305 16.4727 37.7344ZM27.248 38.1211H27.3359C29.1406 37.3359 30.4004 36.6738 31.1152 36.1348H31.0273C29.2344 36.1348 27.9746 36.7969 27.248 38.1211ZM25.9297 40.3711V40.6348C27.3711 40.084 28.0918 39.6797 28.0918 39.4219C28.209 39.4805 28.3027 39.5098 28.373 39.5098C29.4863 39.0293 30.9336 38.2207 32.7148 37.084C33.0078 36.9551 33.166 36.8262 33.1895 36.6973C33.002 36.6387 32.9082 36.5801 32.9082 36.5215C32.5098 36.5215 31.3145 36.9902 29.3223 37.9277C29.2402 38.0332 28.3613 38.4375 26.6855 39.1406C26.1816 39.6445 25.9297 40.0547 25.9297 40.3711ZM25.9297 41.4785V41.6719H26.2988C26.4395 41.6719 26.5684 41.7012 26.6855 41.7598C26.7441 41.7598 26.7734 41.7305 26.7734 41.6719C26.8438 41.6719 26.9375 41.7012 27.0547 41.7598C27.6992 41.7012 28.2031 41.6719 28.5664 41.6719C28.5898 41.4727 29.5625 40.9746 31.4844 40.1777C32.1289 39.7559 33.1367 39.252 34.5078 38.666C34.5078 38.502 34.3496 38.1328 34.0332 37.5586C33.5996 37.5586 32.6914 37.9922 31.3086 38.8594C30.1367 39.3398 28.4668 40.1191 26.2988 41.1973C26.0527 41.291 25.9297 41.3848 25.9297 41.4785ZM44.1406 39.4219L44.2285 39.8965C45.5527 39.416 46.2148 38.9414 46.2148 38.4727V37.9277C44.9023 38.6309 44.2109 39.0996 44.1406 39.334V39.4219ZM28.0039 43.7285H28.0918C29.8965 43.0605 31.877 42.123 34.0332 40.916C34.7832 40.6348 35.1641 40.4531 35.1758 40.3711C35.0469 39.9609 34.9824 39.6738 34.9824 39.5098C34.6191 39.5098 33.1426 40.1016 30.5527 41.2852C29.041 41.8359 28.2852 42.4629 28.2852 43.166C28.0977 43.2246 28.0039 43.4121 28.0039 43.7285ZM44.6152 40.8281V40.916C44.7676 41.2324 45.084 41.5781 45.5645 41.9531H45.7402C45.7402 41.7656 45.8047 41.4492 45.9336 41.0039V40.0898C45.0547 40.4062 44.6152 40.6523 44.6152 40.8281ZM26.5801 45.5039C26.627 45.668 26.7852 45.8262 27.0547 45.9785H27.248C27.248 45.6973 27.623 45.5391 28.373 45.5039C30.2832 44.9883 31.7012 44.4258 32.627 43.8164C33.1426 43.4297 34.1152 42.873 35.5449 42.1465V41.9531C35.5449 41.7773 35.4863 41.5898 35.3691 41.3906C34.5605 41.6836 33.3008 42.2754 31.5898 43.166C31.3555 43.166 29.9082 43.7578 27.248 44.9414C26.8027 45.2695 26.5801 45.457 26.5801 45.5039ZM28.5664 46.4531C28.5664 46.6172 28.9414 46.7754 29.6914 46.9277C31.6719 46.7988 32.9961 46.5469 33.6641 46.1719C34.8594 45.2578 35.457 44.2852 35.457 43.2539C34.8828 43.4883 33.5293 44.1738 31.3965 45.3105C29.5684 45.8379 28.625 46.2188 28.5664 46.4531ZM9.96875 47.7539C10.0039 47.7539 10.666 47.4785 11.9551 46.9277V46.7344C11.8496 46.7344 11.7207 46.6699 11.5684 46.541L11.0059 46.6465V46.541C10.4668 46.541 10.1211 46.9453 9.96875 47.7539ZM10.1621 48.8965L10.3379 49.2656L13.1855 48.0352C13.8652 47.5312 14.2109 47.25 14.2227 47.1914C14.1641 47.1914 13.9121 47.1621 13.4668 47.1035C11.9785 47.748 10.9062 48.2461 10.25 48.5977C10.25 48.668 10.2207 48.7676 10.1621 48.8965ZM40.5547 47.0156C41.5625 47.0156 42.0664 47.3555 42.0664 48.0352C42.125 48.0352 42.1543 48.1289 42.1543 48.3164V48.9844C42.1543 49.6992 41.4336 50.4785 39.9922 51.3223H39.7109C38.9961 51.3223 38.5508 50.7246 38.375 49.5293C38.375 48.8496 38.7559 48.0996 39.5176 47.2793C39.9395 47.1035 40.2852 47.0156 40.5547 47.0156ZM11.0938 50.1973C11.3047 50.3848 11.4629 50.4785 11.5684 50.4785C13.3496 49.459 14.7676 48.6797 15.8223 48.1406L15.9102 47.9473V47.666C15.6289 47.666 15.4414 47.6309 15.3477 47.5605C13.8477 48.5566 12.5234 49.2129 11.375 49.5293C11.3164 49.7754 11.2227 49.998 11.0938 50.1973ZM39.3242 49.1777H39.4297C39.6406 48.9668 40.1387 48.5859 40.9238 48.0352C40.8184 48.0352 40.6309 47.9707 40.3613 47.8418C39.9863 47.9824 39.6406 48.3926 39.3242 49.0723V49.1777ZM39.6055 50.0918V50.1973C39.6758 50.3848 39.8691 50.4785 40.1855 50.4785C40.959 49.7988 41.3633 49.3008 41.3984 48.9844H41.2227C40.6133 49.2656 40.0742 49.6348 39.6055 50.0918ZM12.5176 51.041V51.1289L13.6426 51.4277C14.5684 51.123 15.2949 50.5547 15.8223 49.7227L15.9102 49.2656V49.1777H15.8223C14.0645 49.916 12.9629 50.5371 12.5176 51.041ZM35.2637 51.4277H35.5449C37.1855 51.7676 38.0059 52.4824 38.0059 53.5723L38.1992 54.6797V55.4355C37.8594 56.3496 37.4785 56.9121 37.0566 57.123C35.5566 58.1777 34.5488 58.7051 34.0332 58.7051H33.3828C32.2461 58.4707 31.6777 58.1309 31.6777 57.6855C31.1152 57.252 30.834 56.8125 30.834 56.3672V55.9102C31.3496 53.9062 31.7891 52.9043 32.1523 52.9043C32.9609 51.9199 33.998 51.4277 35.2637 51.4277ZM34.1387 52.623L33.9453 52.5352C32.8906 53.1797 32.3223 53.8008 32.2402 54.3984C32.8027 54.2109 33.5586 53.7773 34.5078 53.0977C35.1992 52.7695 35.5449 52.5527 35.5449 52.4473C35.1699 52.4473 34.9824 52.3828 34.9824 52.2539C34.4199 52.3359 34.1387 52.459 34.1387 52.623ZM31.7832 55.6289V55.9102L31.8711 56.5605H31.959C33.4238 55.4121 34.5898 54.6914 35.457 54.3984C35.457 54.2812 35.8027 54.0938 36.4941 53.8359L36.7754 53.4844C36.7168 53.2266 36.5938 53.0977 36.4062 53.0977C33.6992 54.4922 32.3457 55.3066 32.3457 55.541C32.252 55.5996 32.0645 55.6289 31.7832 55.6289ZM7.22656 54.5918H7.50781C7.74219 54.4395 8.08789 54.2812 8.54492 54.1172V53.9414C8.54492 53.8008 8.39258 53.707 8.08789 53.6602C7.64258 53.6602 7.35547 53.9707 7.22656 54.5918ZM13.6426 57.8789C16.9004 56.1914 18.916 55.0957 19.6895 54.5918V54.3984C18.8105 54.3398 18.2422 54.3105 17.9844 54.3105C16.6484 54.3105 15.2012 55.5 13.6426 57.8789ZM32.7148 57.2109V57.5098C33.6875 57.1816 35.2285 56.3027 37.3379 54.873V54.5039L37.25 54.3105C36.1367 54.9434 35.3516 55.3535 34.8945 55.541L33.9453 56.0859L32.7148 57.2109ZM12.5176 60.3926C13.291 59.8301 14.0117 59.4902 14.6797 59.373C15.3594 58.8809 16.5254 58.3184 18.1777 57.6855C18.3418 57.5215 19.2559 57.1172 20.9199 56.4727C21.6934 56.0977 22.291 55.7227 22.7129 55.3477C22.209 54.9023 21.7988 54.6797 21.4824 54.6797C21.3301 54.6797 20.2637 55.2422 18.2832 56.3672C16.1738 57.2695 14.9727 57.9551 14.6797 58.4238C14.5039 58.6816 13.9062 58.9688 12.8867 59.2852C12.6406 59.8477 12.5176 60.2168 12.5176 60.3926ZM7.41992 55.541V55.7344C7.4668 55.9102 7.68945 56.0566 8.08789 56.1738C8.69727 55.9629 9.07227 55.6875 9.21289 55.3477C9.1543 54.9727 9.06055 54.7852 8.93164 54.7852C8.65039 54.9961 8.14648 55.248 7.41992 55.541ZM13.0801 61.1484C13.0801 61.2773 13.4902 61.4062 14.3105 61.5352C14.6855 61.4297 15.5645 60.9902 16.9473 60.2168C19.1621 59.3379 21.4297 58.1191 23.75 56.5605C23.6328 56.2676 23.5098 56.1094 23.3809 56.0859C22.291 56.6953 20.5566 57.5098 18.1777 58.5293C15.9512 59.6777 14.4395 60.3926 13.6426 60.6738C13.2676 60.9316 13.0801 61.0898 13.0801 61.1484ZM33.8574 57.8789C34.7129 57.8789 35.6211 57.4102 36.582 56.4727H36.4062C35.0234 57.2812 34.1738 57.7207 33.8574 57.791V57.8789ZM15.8223 61.9043C15.916 61.9043 16.0391 61.9688 16.1914 62.0977H17.334C18.7051 61.5938 20.9375 60.498 24.0312 58.8105C24.2891 58.7168 24.4766 58.5586 24.5938 58.3359C24.4062 57.7148 24.2832 57.4043 24.2246 57.4043C22.0215 58.7871 19.3438 60.1641 16.1914 61.5352C15.9453 61.7109 15.8223 61.834 15.8223 61.9043ZM19.2148 62.3789V62.4668L20.3574 62.6426C22.1152 61.7754 23.2754 61.1543 23.8379 60.7793C24.5996 60.3574 24.9805 60.0117 24.9805 59.7422C24.9102 59.625 24.875 59.5312 24.875 59.4609H24.6992C21.1367 61.2656 19.3086 62.2383 19.2148 62.3789ZM22.3262 62.5547V62.7305C22.3965 62.7305 22.4961 62.7656 22.625 62.8359V62.6426C23.0469 62.7012 23.3281 62.7656 23.4688 62.8359C23.5859 62.7656 23.6797 62.7305 23.75 62.7305H24.0312V62.6426H24.6992C24.8867 62.6426 24.9805 62.3027 24.9805 61.623V61.1484H24.875C23.3867 62.0859 22.5371 62.5547 22.3262 62.5547Z" fill="white"/>
</svg>
